<svg width="24" height="24" viewBox="0 0 24 24" fill="none" xmlns="http://www.w3.org/2000/svg">
    <circle cx="12" cy="12" r="10" stroke="#ffffff" stroke-width="2" fill="#1e1e1e" />
    <path d="M8 9C9.10457 9 10 8.10457 10 7C10 5.89543 9.10457 5 8 5C6.89543 5 6 5.89543 6 7C6 8.10457 6.89543 9 8 9Z"
        fill="#f97316" />
    <path
        d="M16 10C17.1046 10 18 9.10457 18 8C18 6.89543 17.1046 6 16 6C14.8954 6 14 6.89543 14 8C14 9.10457 14.8954 10 16 10Z"
        fill="#22c55e" />
    <path
        d="M15 17C16.1046 17 17 16.1046 17 15C17 13.8954 16.1046 13 15 13C13.8954 13 13 13.8954 13 15C13 16.1046 13.8954 17 15 17Z"
        fill="#0ea5e9" />
    <path
        d="M9 19C10.1046 19 11 18.1046 11 17C11 15.8954 10.1046 15 9 15C7.89543 15 7 15.8954 7 17C7 18.1046 7.89543 19 9 19Z"
        fill="#a855f7" />
</svg>